<?xml version="1.0" encoding="UTF-8" standalone="no"?>
<!DOCTYPE svg PUBLIC "-//W3C//DTD SVG 1.1//EN" "http://www.w3.org/Graphics/SVG/1.1/DTD/svg11.dtd">
<svg width="100%" height="100%" viewBox="0 0 100 100" version="1.1" xmlns="http://www.w3.org/2000/svg" xmlns:xlink="http://www.w3.org/1999/xlink" xml:space="preserve" xmlns:serif="http://www.serif.com/" style="fill-rule:evenodd;clip-rule:evenodd;stroke-linejoin:round;stroke-miterlimit:2;">
    <g>
        <path d="M50,12.5C52.137,12.5 53.898,14.109 54.139,16.181L54.167,16.667L54.167,45.833L83.333,45.833C85.635,45.833 87.5,47.699 87.5,50C87.5,52.137 85.891,53.898 83.819,54.139L83.333,54.167L54.167,54.167L54.167,83.333C54.167,85.635 52.301,87.5 50,87.5C47.863,87.5 46.102,85.891 45.861,83.819L45.833,83.333L45.833,54.167L16.667,54.167C14.365,54.167 12.5,52.301 12.5,50C12.5,47.863 14.109,46.102 16.181,45.861L16.667,45.833L45.833,45.833L45.833,16.667C45.833,14.365 47.699,12.5 50,12.5Z" style="fill-rule:nonzero;"/>
    </g>
</svg>
