<?xml version="1.0" encoding="UTF-8" standalone="no"?>
<!DOCTYPE svg PUBLIC "-//W3C//DTD SVG 1.1//EN" "http://www.w3.org/Graphics/SVG/1.1/DTD/svg11.dtd">
<svg width="100%" height="100%" viewBox="0 0 14 14" version="1.1" xmlns="http://www.w3.org/2000/svg" xmlns:xlink="http://www.w3.org/1999/xlink" xml:space="preserve" xmlns:serif="http://www.serif.com/" style="fill-rule:evenodd;clip-rule:evenodd;stroke-linejoin:round;stroke-miterlimit:2;">
    <path id="path0_fill" d="M12.833,5.833L8.167,5.833L8.167,1.167C8.167,0.467 7.7,0 7,0C6.3,0 5.833,0.467 5.833,1.167L5.833,5.833L1.167,5.833C0.467,5.833 0,6.3 0,7C0,7.7 0.467,8.167 1.167,8.167L5.833,8.167L5.833,12.833C5.833,13.533 6.3,14 7,14C7.7,14 8.167,13.533 8.167,12.833L8.167,8.167L12.833,8.167C13.533,8.167 14,7.7 14,7C14,6.3 13.533,5.833 12.833,5.833Z" style="fill:rgb(76,175,80);fill-rule:nonzero;"/>
</svg>
